#!OML:ASF F:\VICON\USERDATA\INSTALL\Justin_Nancy\Justin_Nancy.ASF
:FULLY-SPECIFIED
:DEGREES
418
root 5.16022 17.4981 20.5094 0.6481 35.5826 3.27591
lowerback 6.08447 0.364864 -1.58492
upperback 0.522557 0.419962 1.18603
thorax -2.89327 0.237344 2.07758
lowerneck -15.5193 -3.05568 -9.51415
upperneck 24.8967 -2.73369 4.244
head 10.7899 -1.58786 2.76967
rclavicle 7.90914e-014 7.95139e-015
rhumerus -33.4657 -15.38 -76.4347
rradius 31.2168
rwrist 5.27442
rhand -14.5197 14.9653
rfingers 7.12502
rthumb 11.6279 -14.692
lclavicle 7.90914e-014 7.95139e-015
lhumerus -35.2017 12.3554 83.2884
lradius 24.6922
lwrist -11.3802
lhand -14.2516 23.4006
lfingers 7.12502
lthumb 11.8865 53.0432
rfemur -10.2836 -0.0268901 18.937
rtibia 65.4507
rfoot 20.3095 4.43042
rtoes 8.02515
lfemur -15.272 -2.42323 -25.7821
ltibia 24.9781
lfoot -5.55548 0.285437
ltoes 3.17085
419
root 5.22363 17.499 20.5935 0.337083 35.2441 2.63039
lowerback 6.4329 0.317252 -1.22717
upperback 0.428414 0.38704 1.42239
thorax -3.18344 0.221554 2.12262
lowerneck -15.8821 -3.02663 -9.92902
upperneck 25.1854 -2.57236 4.35803
head 10.9656 -1.54214 2.90772
rclavicle 5.63803e-014 2.14687e-014
rhumerus -33.508 -15.4319 -76.4205
rradius 30.8892
rwrist 6.04429
rhand -14.1886 14.9482
rfingers 7.12502
rthumb 11.9472 -14.6909
lclavicle 5.63803e-014 2.14687e-014
lhumerus -34.9732 11.9417 83.4162
lradius 24.9875
lwrist -11.1916
lhand -14.3992 21.0893
lfingers 7.12502
lthumb 11.7442 50.7401
rfemur -12.1331 -0.034268 19.6285
rtibia 67.2333
rfoot 19.388 2.44741
rtoes 8.69953
lfemur -15.0682 -2.60017 -25.1631
ltibia 25.0963
lfoot -5.77958 0.841584
ltoes 3.3971
420
root 5.30116 17.4906 20.6885 0.205299 35.1816 2.46218
lowerback 6.63908 0.245869 -1.2015
upperback 0.418253 0.299397 1.59579
thorax -3.30633 0.1803 2.29572
lowerneck -16.0536 -3.01459 -10.1851
upperneck 25.2596 -2.43556 4.25368
head 11.0211 -1.51746 2.93256
rclavicle 2.73329e-015 -1.51076e-014
rhumerus -33.5136 -15.3817 -76.2991
rradius 30.3803
rwrist 6.65885
rhand -14.297 14.6839
rfingers 7.12502
rthumb 11.8427 -14.9612
lclavicle 2.73329e-015 -1.51076e-014
lhumerus -34.6395 12.3471 83.3307
lradius 24.9442
lwrist -11.5338
lhand -14.7226 21.664
lfingers 7.12502
lthumb 11.4323 51.3323
rfemur -13.5579 -0.633026 19.8121
rtibia 68.8073
rfoot 17.4559 0.659955
rtoes 10.8425
lfemur -14.7266 -2.55235 -25.0633
ltibia 25.3404
lfoot -6.22789 1.00783
ltoes 3.52933
421
root 5.39601 17.4955 20.7938 0.413347 35.3465 2.93083
lowerback 6.74806 0.195065 -1.44729
upperback 0.420553 0.209054 1.50715
thorax -3.36114 0.138796 2.35115
lowerneck -15.9319 -2.98021 -9.92188
upperneck 24.9919 -2.36799 3.86692
head 10.884 -1.50478 2.75123
rclavicle -6.07784e-014 1.03368e-014
rhumerus -33.7071 -15.8235 -76.0393
rradius 30.0304
rwrist 7.02493
rhand -14.3427 14.7666
rfingers 7.12502
rthumb 11.7987 -14.8811
lclavicle -6.07784e-014 1.03368e-014
lhumerus -34.1163 12.8713 83.1047
lradius 24.6562
lwrist -12.5199
lhand -14.8377 21.2343
lfingers 7.12502
lthumb 11.3213 50.9087
rfemur -14.8506 -1.43547 19.2797
rtibia 70.163
rfoot 15.4423 -0.30172
rtoes 13.5517
lfemur -14.2829 -2.52524 -25.5979
ltibia 25.6812
lfoot -6.9456 1.00334
ltoes 3.61599
422
root 5.48092 17.5003 20.9068 0.388463 35.4197 2.99484
lowerback 6.77552 0.10809 -1.51807
upperback 0.459246 0.0858745 1.46204
thorax -3.33012 0.0776058 2.35602
lowerneck -16.303 -3.03995 -10.073
upperneck 25.1963 -2.39631 3.9598
head 11.0394 -1.52277 2.80856
rclavicle 8.06817e-014 3.97569e-015
rhumerus -33.812 -16.1672 -76.0689
rradius 29.6848
rwrist 7.23139
rhand -14.6689 14.8702
rfingers 7.12502
rthumb 11.484 -14.7952
lclavicle 8.06817e-014 3.97569e-015
lhumerus -33.5268 13.2858 82.7795
lradius 24.5247
lwrist -13.6402
lhand -14.4646 18.8834
lfingers 7.12502
lthumb 11.6811 48.5377
rfemur -16.1288 -1.98414 19.211
rtibia 71.2658
rfoot 13.7723 -0.524289
rtoes 12.6405
lfemur -13.832 -2.47857 -25.7288
ltibia 25.9262
lfoot -7.57868 1.12095
ltoes 3.03361
